<?xml version="1.0" encoding="UTF-8" standalone="no"?>
<svg
   xmlns:dc="http://purl.org/dc/elements/1.1/"
   xmlns:cc="http://creativecommons.org/ns#"
   xmlns:rdf="http://www.w3.org/1999/02/22-rdf-syntax-ns#"
   xmlns:svg="http://www.w3.org/2000/svg"
   xmlns="http://www.w3.org/2000/svg"
   xmlns:sodipodi="http://sodipodi.sourceforge.net/DTD/sodipodi-0.dtd"
   xmlns:inkscape="http://www.inkscape.org/namespaces/inkscape"
   inkscape:version="1.0 (4035a4fb49, 2020-05-01)"
   sodipodi:docname="sun.svg"
   xml:space="preserve"
   style="enable-background:new 0 0 384 384;"
   viewBox="0 0 384 384"
   y="0px"
   x="0px"
   id="Capa_1"
   version="1.1"><metadata
   id="metadata61"><rdf:RDF><cc:Work
       rdf:about=""><dc:format>image/svg+xml</dc:format><dc:type
         rdf:resource="http://purl.org/dc/dcmitype/StillImage" /></cc:Work></rdf:RDF></metadata><defs
   id="defs59" /><sodipodi:namedview
   inkscape:current-layer="Capa_1"
   inkscape:window-maximized="0"
   inkscape:window-y="0"
   inkscape:window-x="0"
   inkscape:cy="192"
   inkscape:cx="192"
   inkscape:zoom="2.1848958"
   showgrid="false"
   id="namedview57"
   inkscape:window-height="480"
   inkscape:window-width="737"
   inkscape:pageshadow="2"
   inkscape:pageopacity="0"
   guidetolerance="10"
   gridtolerance="10"
   objecttolerance="10"
   borderopacity="1"
   bordercolor="#666666"
   pagecolor="#ffffff" />
<g
   style="fill:#ffffff"
   id="g6">
	<g
   style="fill:#ffffff"
   id="g4">
		<path
   style="fill:#ffffff"
   id="path2"
   d="M101.488,78.864L78.864,56.24c-6.24-6.248-16.384-6.248-22.624,0c-6.248,6.248-6.248,16.376,0,22.624l22.624,22.624    c3.12,3.128,7.216,4.688,11.312,4.688c4.096,0,8.192-1.56,11.312-4.688C107.736,95.24,107.736,85.112,101.488,78.864z" />
	</g>
</g>
<g
   style="fill:#ffffff"
   id="g12">
	<g
   style="fill:#ffffff"
   id="g10">
		<path
   style="fill:#ffffff"
   id="path8"
   d="M48,176H16c-8.832,0-16,7.168-16,16c0,8.832,7.168,16,16,16h32c8.832,0,16-7.168,16-16C64,183.168,56.832,176,48,176z" />
	</g>
</g>
<g
   style="fill:#ffffff"
   id="g18">
	<g
   style="fill:#ffffff"
   id="g16">
		<path
   style="fill:#ffffff"
   id="path14"
   d="M101.488,282.512c-6.24-6.248-16.384-6.248-22.624,0L56.24,305.136c-6.248,6.248-6.248,16.376,0,22.624    c3.12,3.128,7.216,4.688,11.312,4.688s8.192-1.56,11.312-4.688l22.624-22.624C107.736,298.888,107.736,288.76,101.488,282.512z" />
	</g>
</g>
<g
   style="fill:#ffffff"
   id="g24">
	<g
   style="fill:#ffffff"
   id="g22">
		<path
   style="fill:#ffffff"
   id="path20"
   d="M192,320c-8.832,0-16,7.168-16,16v32c0,8.832,7.168,16,16,16c8.832,0,16-7.168,16-16v-32C208,327.168,200.832,320,192,320    z" />
	</g>
</g>
<g
   style="fill:#ffffff"
   id="g30">
	<g
   style="fill:#ffffff"
   id="g28">
		<path
   style="fill:#ffffff"
   id="path26"
   d="M327.76,305.136l-22.624-22.624c-6.24-6.248-16.384-6.248-22.624,0c-6.248,6.248-6.248,16.376,0,22.624l22.624,22.624    c3.12,3.128,7.216,4.688,11.312,4.688s8.192-1.56,11.312-4.688C334.008,321.512,334.008,311.384,327.76,305.136z" />
	</g>
</g>
<g
   style="fill:#ffffff"
   id="g36">
	<g
   style="fill:#ffffff"
   id="g34">
		<path
   style="fill:#ffffff"
   id="path32"
   d="M368,176h-32c-8.832,0-16,7.168-16,16c0,8.832,7.168,16,16,16h32c8.832,0,16-7.168,16-16C384,183.168,376.832,176,368,176    z" />
	</g>
</g>
<g
   style="fill:#ffffff"
   id="g42">
	<g
   style="fill:#ffffff"
   id="g40">
		<path
   style="fill:#ffffff"
   id="path38"
   d="M327.76,56.24c-6.24-6.248-16.384-6.248-22.624,0l-22.624,22.624c-6.248,6.248-6.248,16.376,0,22.624    c3.12,3.128,7.216,4.688,11.312,4.688s8.192-1.56,11.312-4.688l22.624-22.624C334.008,72.616,334.008,62.488,327.76,56.24z" />
	</g>
</g>
<g
   style="fill:#ffffff"
   id="g48">
	<g
   style="fill:#ffffff"
   id="g46">
		<path
   style="fill:#ffffff"
   id="path44"
   d="M192,0c-8.832,0-16,7.168-16,16v32c0,8.832,7.168,16,16,16c8.832,0,16-7.168,16-16V16C208,7.168,200.832,0,192,0z" />
	</g>
</g>
<g
   style="fill:#ffffff"
   id="g54">
	<g
   style="fill:#ffffff"
   id="g52">
		<path
   style="fill:#ffffff"
   id="path50"
   d="M192,88c-57.344,0-104,46.656-104,104s46.656,104,104,104s104-46.656,104-104S249.344,88,192,88z M192,264    c-39.696,0-72-32.304-72-72s32.304-72,72-72s72,32.304,72,72S231.696,264,192,264z" />
	</g>
</g>
</svg>
