<?xml version="1.0" encoding="UTF-8" standalone="no"?>
<svg
   xmlns:dc="http://purl.org/dc/elements/1.1/"
   xmlns:cc="http://creativecommons.org/ns#"
   xmlns:rdf="http://www.w3.org/1999/02/22-rdf-syntax-ns#"
   xmlns:svg="http://www.w3.org/2000/svg"
   xmlns="http://www.w3.org/2000/svg"
   xmlns:sodipodi="http://sodipodi.sourceforge.net/DTD/sodipodi-0.dtd"
   xmlns:inkscape="http://www.inkscape.org/namespaces/inkscape"
   id="svg8"
   version="1.1"
   viewBox="0 0 101.6 135.46666"
   height="135.46666mm"
   width="101.6mm"
   inkscape:version="1.0 (4035a4fb49, 2020-05-01)"
   sodipodi:docname="waterLevel.svg">
  <defs
     id="defs2" />
  <sodipodi:namedview
     id="base"
     pagecolor="#ffffff"
     bordercolor="#666666"
     borderopacity="1.0"
     inkscape:pageopacity="0.0"
     inkscape:pageshadow="2"
     inkscape:zoom="0.49497475"
     inkscape:cx="57.140174"
     inkscape:cy="278.88054"
     inkscape:document-units="mm"
     inkscape:current-layer="layer1"
     inkscape:document-rotation="0"
     showgrid="false"
     inkscape:window-width="1496"
     inkscape:window-height="1013"
     inkscape:window-x="359"
     inkscape:window-y="0"
     inkscape:window-maximized="0"
     fit-margin-top="0"
     fit-margin-left="0"
     fit-margin-right="0"
     fit-margin-bottom="0" />
  <metadata
     id="metadata5">
    <rdf:RDF>
      <cc:Work
         rdf:about="">
        <dc:format>image/svg+xml</dc:format>
        <dc:type
           rdf:resource="http://purl.org/dc/dcmitype/StillImage" />
        <dc:title />
      </cc:Work>
    </rdf:RDF>
  </metadata>
  <g
     inkscape:label="Layer 1"
     inkscape:groupmode="layer"
     id="layer1"
     style="display:inline"
     transform="translate(-54.200001,-80.766668)">
    <g
       style="fill:#ffffff"
       id="g98"
       transform="matrix(0.26458333,0,0,0.26458333,37.266887,80.766874)">
      <g
         style="fill:#ffffff"
         id="g14">
        <g
           style="fill:#ffffff"
           id="g12">
          <path
             style="fill:#ffffff"
             id="path10"
             d="m 445.82227,227.88281 c -5.664,0 -10.91177,3.00905 -13.75977,7.87305 -21.824,37.024 -48.89627,71.55173 -75.07227,104.92773 -53.05599,67.648 -103.16796,131.55122 -103.16796,207.19922 0,105.888 86.112,192 192,192 105.88799,0 192,-86.112 192,-192 0,-75.616 -50.07877,-139.51997 -103.13477,-207.16797 -26.176,-33.408 -53.24827,-67.90298 -75.07227,-104.95898 -2.88,-4.864 -8.12896,-7.87305 -13.79296,-7.87305 z m 0,46.30469 c 19.808,30.336 42.01643,58.68748 63.64843,86.27148 48.22517,61.45674 93.80941,119.61301 96.24414,182.1875 -9.81783,7.67773 -19.11172,12.26499 -26.04296,11.11133 -10.52359,-2.04336 -21.16673,-11.54709 -34.82032,-22.60351 l -0.01,-0.008 c -0.0159,-0.0129 -0.029,-0.0242 -0.0449,-0.0371 -11.99501,-9.80289 -28.54492,-25.45527 -53.50977,-25.65626 l -0.32031,-0.002 -0.32422,0.008 c -26.20965,0.75916 -42.93499,17.90121 -55.24024,27.9375 -9.96125,7.86351 -19.41114,12.59016 -26.43554,11.42579 -10.52638,-2.03984 -21.17082,-11.54604 -34.82813,-22.60547 l -0.01,-0.008 c -0.0159,-0.0129 -0.029,-0.0242 -0.0449,-0.0371 -11.99501,-9.80289 -28.54492,-25.45723 -53.50976,-25.65821 l -0.32227,-0.002 -0.32031,0.01 c -10.44846,0.30264 -19.38727,3.21466 -27.14453,7.23829 14.82369,-48.25632 51.28143,-94.74469 89.38867,-143.33204 21.632,-27.584 43.83849,-55.90423 63.64649,-86.24023 z"
             transform="translate(-189.8231,-227.88359)" />
        </g>
      </g>
      <g
         style="fill:#ffffff"
         id="g20">
        <g
           style="fill:#ffffff"
           id="g18" />
      </g>
      <g
         style="fill:#ffffff"
         id="g26">
        <g
           style="fill:#ffffff"
           id="g24" />
      </g>
      <g
         style="fill:#ffffff"
         id="g32">
        <g
           style="fill:#ffffff"
           id="g30" />
      </g>
      <g
         style="fill:#ffffff"
         id="g34" />
      <g
         style="fill:#ffffff"
         id="g36" />
      <g
         style="fill:#ffffff"
         id="g38" />
      <g
         style="fill:#ffffff"
         id="g40" />
      <g
         style="fill:#ffffff"
         id="g42" />
      <g
         style="fill:#ffffff"
         id="g44" />
      <g
         style="fill:#ffffff"
         id="g46" />
      <g
         style="fill:#ffffff"
         id="g48" />
      <g
         style="fill:#ffffff"
         id="g50" />
      <g
         style="fill:#ffffff"
         id="g52" />
      <g
         style="fill:#ffffff"
         id="g54" />
      <g
         style="fill:#ffffff"
         id="g56" />
      <g
         style="fill:#ffffff"
         id="g58" />
      <g
         style="fill:#ffffff"
         id="g60" />
      <g
         style="fill:#ffffff"
         id="g62" />
    </g>
    <g
       style="display:inline;fill:#ffffff"
       id="g161"
       transform="matrix(0.26458333,0,0,0.26458333,-50.527943,50.756731)">
      <g
         style="fill:#ffffff"
         id="g106" />
      <g
         style="fill:#ffffff"
         id="g108" />
      <g
         style="fill:#ffffff"
         id="g110" />
      <g
         style="fill:#ffffff"
         id="g112" />
      <g
         style="fill:#ffffff"
         id="g114" />
      <g
         style="fill:#ffffff"
         id="g116" />
      <g
         style="fill:#ffffff"
         id="g118" />
      <g
         style="fill:#ffffff"
         id="g120" />
      <g
         style="fill:#ffffff"
         id="g122" />
      <g
         style="fill:#ffffff"
         id="g124" />
      <g
         style="fill:#ffffff"
         id="g126" />
      <g
         style="fill:#ffffff"
         id="g128" />
      <g
         style="fill:#ffffff"
         id="g130" />
      <g
         style="fill:#ffffff"
         id="g132" />
      <g
         style="fill:#ffffff"
         id="g134" />
    </g>
  </g>
</svg>
